<svg width="67" height="62" viewBox="0 0 67 62" fill="none" xmlns="http://www.w3.org/2000/svg">
<g clip-path="url(#clip0_11_551)">
<path d="M46.9539 55.6909C47.0776 55.6238 47.2013 55.5673 47.325 55.5154C47.2786 55.5139 47.2307 55.5108 47.1843 55.5093C49.4433 53.9221 51.6667 52.3059 53.7262 50.5691C53.5654 50.2364 53.403 49.8854 53.2407 49.513L50.9307 44.2142L34.2537 5.97339H33.776C33.776 6.01307 33.7559 6.05427 33.7172 6.09243C33.5982 6.44497 33.2503 7.32556 32.6767 8.73573C32.1015 10.1459 31.3964 11.8994 30.5615 13.9949C29.7281 16.0903 28.8066 18.4222 27.7939 20.9862C26.7827 23.5532 25.7406 26.1476 24.6691 28.7711C22.6498 33.8501 20.4186 39.4038 17.9711 45.4321C18.0963 45.6595 18.2246 45.8854 18.3576 46.1112C19.5033 43.2085 20.6475 40.3027 21.7947 37.3984C21.8844 37.1726 21.9818 36.9345 22.1751 36.7864C22.4441 36.5774 22.8245 36.5911 23.1615 36.6414C26.577 37.1558 28.9875 40.2203 30.4842 43.2924C32.437 47.3123 33.8054 51.6161 37.5007 54.4791C38.7886 55.4788 40.426 55.9778 42.4113 55.9778H43.0313C44.0843 55.9778 45.1326 55.9778 46.1824 55.9763C46.4437 55.9 46.7066 55.8267 46.957 55.6909H46.9539ZM45.2671 53.2445C45.1078 53.8504 44.8001 54.3509 44.344 54.7416C44.109 54.9431 43.8261 55.0926 43.4921 55.1888C43.1751 55.2834 42.8149 55.3292 42.4082 55.3292C40.9796 55.3292 39.7287 55.027 38.6588 54.4181C37.5873 53.8122 36.6549 53.0384 35.8602 52.0968C35.0655 51.1552 34.3805 50.1006 33.8069 48.9239C33.2317 47.7488 32.6844 46.595 32.1695 45.458C31.415 43.8113 30.6125 42.2363 29.759 40.727C28.904 39.2191 27.8232 38.0348 26.5136 37.1726C25.2442 36.4293 23.8558 36.0768 22.3467 36.1149C23.1414 34.1157 23.9532 32.0996 24.7881 30.0622C25.6215 28.0248 26.4054 26.0973 27.1398 24.275C27.8727 22.4513 28.5175 20.8274 29.0725 19.3974C29.6276 17.969 30.0652 16.8808 30.3837 16.136C30.8599 17.2349 31.2866 18.204 31.6639 19.0449C32.0396 19.8873 32.4478 20.8076 32.8838 21.8072C33.3214 22.8038 33.8146 23.9606 34.3713 25.2731C34.9263 26.5871 35.6515 28.2507 36.5436 30.2682C37.4373 32.2873 38.5181 34.7628 39.789 37.7006C41.0584 40.6384 42.6061 44.2051 44.4306 48.3959C44.4306 48.434 44.4507 48.4737 44.4925 48.5134C44.5311 48.5531 44.5512 48.5912 44.5512 48.6309C44.5512 48.6706 44.5698 48.7301 44.61 48.8079C44.9269 49.6305 45.1542 50.4241 45.2934 51.1872C45.4078 51.8206 45.4217 52.3975 45.3305 52.924C45.3135 53.0323 45.2918 53.1392 45.2655 53.2445H45.2671Z" fill="black"/>
<path d="M17.2398 56.2996C15.355 56.2034 13.5429 56.0234 11.8143 55.6495C8.84254 54.9993 6.11046 53.7616 3.68762 51.3457C4.78231 54.9062 5.8739 58.4667 6.95931 61.9998H21.6834V56.4278C20.1636 56.3988 18.6792 56.3744 17.2398 56.2996Z" fill="black"/>
<path d="M23.9022 53.8212C21.7174 51.5137 19.8667 49.0199 18.3561 46.4087C18.1118 47.0314 17.8644 47.6525 17.6185 48.2752C17.0944 49.6029 16.6135 51.1718 16.7836 52.527C18.6777 53.9006 20.7217 55.1993 22.8724 56.4523C22.4735 56.4432 22.0777 56.4355 21.6819 56.4294V62.0014H26.3559C27.2171 58.5782 26.1827 56.2325 23.9006 53.8227L23.9022 53.8212Z" fill="black"/>
<path d="M49.0042 56.376C48.3903 56.3485 46.94 56.3852 46.3262 56.3577C48.5851 54.7705 51.6682 52.3058 53.7277 50.569C58.5517 46.5033 62.4666 41.7616 63.7809 35.1228C65.6115 25.8606 63.2722 17.3675 56.9978 10.161C46.4066 -1.99786 26.3868 -3.47517 14.6886 6.9744C8.14363 12.818 4.23183 20.0245 3.94115 28.8198C3.60873 38.8298 8.2998 45.6716 15.4415 51.2191C15.7539 50.6712 16.0523 50.0852 16.3352 49.4564C16.8903 48.092 17.4361 46.7506 17.9695 45.4335C12.1343 34.8649 11.805 22.5061 17.5814 12.9585C21.6216 6.27848 27.3996 2.67828 35.5494 3.41999C43.3266 4.1266 48.7815 8.12665 51.5105 15.1851C55.5182 25.5538 55.2012 35.2739 50.9307 44.2171C49.502 47.2099 47.6327 50.1142 45.332 52.9269C44.9764 53.3634 44.61 53.7968 44.2311 54.2302C43.9497 54.5522 43.7039 54.8727 43.4921 55.1917C43.3143 55.4542 43.1612 55.7182 43.0282 55.9792C42.0835 57.8411 42.15 59.7168 42.501 61.9678C44.7135 61.9678 46.9029 61.9755 49.0753 61.9785C49.1541 59.8511 48.9098 58.5065 49.0026 56.3791L49.0042 56.376Z" fill="black"/>
<path d="M53.4478 56.2493C55.3326 56.1532 57.1447 55.9731 58.8733 55.5992C61.8451 54.949 64.5771 53.7113 67 51.2954C65.9053 54.8559 64.8137 58.4164 63.7283 61.9495H49.0042C49.0042 60.0922 49.0042 58.2348 49.0042 56.3775C50.524 56.3485 52.0083 56.3241 53.4478 56.2493Z" fill="black"/>
</g>
<defs>
<clipPath id="clip0_11_551">
<rect width="67" height="62" fill="white"/>
</clipPath>
</defs>
</svg>
