<svg width="67" height="62" viewBox="0 0 67 62" fill="none" xmlns="http://www.w3.org/2000/svg">
<g clip-path="url(#clip0_10_256)">
<path d="M46.9539 55.6909C47.0776 55.6238 47.2013 55.5673 47.325 55.5154C47.2786 55.5139 47.2307 55.5108 47.1843 55.5093C49.4433 53.9221 51.6667 52.3059 53.7262 50.5691C53.5654 50.2364 53.403 49.8854 53.2407 49.513L50.9307 44.2142L34.2537 5.97339H33.776C33.776 6.01307 33.7559 6.05427 33.7172 6.09243C33.5982 6.44497 33.2503 7.32556 32.6767 8.73573C32.1015 10.1459 31.3964 11.8994 30.5615 13.9949C29.7281 16.0903 28.8066 18.4222 27.7939 20.9862C26.7827 23.5532 25.7406 26.1476 24.6691 28.7711C22.6498 33.8501 20.4186 39.4038 17.9711 45.4321C18.0963 45.6595 18.2246 45.8854 18.3576 46.1112C19.5033 43.2085 20.6475 40.3027 21.7947 37.3984C21.8844 37.1726 21.9818 36.9345 22.1751 36.7864C22.4441 36.5774 22.8245 36.5911 23.1615 36.6414C26.577 37.1558 28.9875 40.2203 30.4842 43.2924C32.437 47.3123 33.8054 51.6161 37.5007 54.4791C38.7886 55.4788 40.426 55.9778 42.4113 55.9778H43.0313C44.0843 55.9778 45.1326 55.9778 46.1824 55.9763C46.4437 55.9 46.7066 55.8267 46.957 55.6909H46.9539ZM45.2671 53.2445C45.1078 53.8504 44.8001 54.3509 44.344 54.7416C44.109 54.9431 43.8261 55.0926 43.4921 55.1888C43.1751 55.2834 42.8149 55.3292 42.4082 55.3292C40.9796 55.3292 39.7287 55.027 38.6588 54.4181C37.5873 53.8122 36.6549 53.0384 35.8602 52.0968C35.0655 51.1552 34.3805 50.1006 33.8069 48.9239C33.2317 47.7488 32.6844 46.595 32.1695 45.458C31.415 43.8113 30.6125 42.2363 29.759 40.727C28.904 39.2191 27.8232 38.0348 26.5136 37.1726C25.2442 36.4293 23.8558 36.0768 22.3467 36.1149C23.1414 34.1157 23.9532 32.0996 24.7881 30.0622C25.6215 28.0248 26.4054 26.0973 27.1398 24.275C27.8727 22.4513 28.5175 20.8274 29.0725 19.3974C29.6276 17.969 30.0652 16.8808 30.3837 16.136C30.8599 17.2349 31.2866 18.204 31.6639 19.0449C32.0396 19.8873 32.4478 20.8076 32.8838 21.8072C33.3214 22.8038 33.8146 23.9606 34.3713 25.2731C34.9263 26.5871 35.6515 28.2507 36.5436 30.2682C37.4373 32.2873 38.5181 34.7628 39.789 37.7006C41.0584 40.6384 42.6061 44.2051 44.4306 48.3959C44.4306 48.434 44.4507 48.4737 44.4925 48.5134C44.5311 48.5531 44.5512 48.5912 44.5512 48.6309C44.5512 48.6706 44.5698 48.7301 44.61 48.8079C44.9269 49.6305 45.1542 50.4241 45.2934 51.1872C45.4078 51.8206 45.4217 52.3975 45.3305 52.924C45.3135 53.0323 45.2918 53.1392 45.2655 53.2445H45.2671Z" fill="white"/>
<path d="M17.2398 56.2998C15.355 56.2037 13.5429 56.0236 11.8143 55.6497C8.84254 54.9996 6.11046 53.7618 3.68762 51.3459C4.78231 54.9065 5.8739 58.467 6.95931 62H21.6834V56.428C20.1636 56.399 18.6792 56.3746 17.2398 56.2998Z" fill="white"/>
<path d="M23.9022 53.8213C21.7174 51.5138 19.8667 49.0201 18.3561 46.4088C18.1118 47.0315 17.8644 47.6526 17.6185 48.2753C17.0944 49.6031 16.6135 51.1719 16.7836 52.5272C18.6777 53.9007 20.7217 55.1995 22.8724 56.4524C22.4735 56.4433 22.0777 56.4356 21.6819 56.4295V62.0015H26.3559C27.2171 58.5784 26.1827 56.2327 23.9006 53.8229L23.9022 53.8213Z" fill="white"/>
<path d="M49.0042 56.3761C48.3903 56.3487 46.94 56.3853 46.3262 56.3578C48.5851 54.7706 51.6682 52.3059 53.7277 50.5691C58.5517 46.5034 62.4666 41.7617 63.7809 35.1229C65.6115 25.8607 63.2722 17.3676 56.9978 10.1611C46.4066 -1.99773 26.3868 -3.47505 14.6886 6.97452C8.14363 12.8182 4.23183 20.0247 3.94115 28.8199C3.60873 38.8299 8.2998 45.6717 15.4415 51.2192C15.7539 50.6714 16.0523 50.0853 16.3352 49.4565C16.8903 48.0922 17.4361 46.7507 17.9695 45.4336C12.1343 34.865 11.805 22.5062 17.5814 12.9586C21.6216 6.2786 27.3996 2.6784 35.5494 3.42011C43.3266 4.12672 48.7815 8.12677 51.5105 15.1852C55.5182 25.5539 55.2012 35.274 50.9307 44.2173C49.502 47.21 47.6327 50.1143 45.332 52.927C44.9764 53.3635 44.61 53.7969 44.2311 54.2304C43.9497 54.5524 43.7039 54.8729 43.4921 55.1918C43.3143 55.4543 43.1612 55.7183 43.0282 55.9793C42.0835 57.8412 42.15 59.7169 42.501 61.968C44.7135 61.968 46.9029 61.9756 49.0753 61.9786C49.1541 59.8512 48.9098 58.5066 49.0026 56.3792L49.0042 56.3761Z" fill="white"/>
<path d="M53.4478 56.2494C55.3326 56.1533 57.1447 55.9732 58.8733 55.5993C61.8451 54.9491 64.5771 53.7114 67 51.2955C65.9053 54.856 64.8137 58.4166 63.7283 61.9496H49.0042C49.0042 60.0923 49.0042 58.235 49.0042 56.3776C50.524 56.3486 52.0083 56.3242 53.4478 56.2494Z" fill="white"/>
</g>
<defs>
<clipPath id="clip0_10_256">
<rect width="67" height="62" fill="white"/>
</clipPath>
</defs>
</svg>
