<svg width="447" height="306" viewBox="0 0 447 306" fill="none" xmlns="http://www.w3.org/2000/svg">
<g clip-path="url(#clip0_10_310)">
<path d="M155.309 293.116C154.954 293.133 154.602 293.039 154.301 292.849C154 292.658 153.765 292.379 153.628 292.05C153.49 291.721 153.457 291.358 153.533 291.009C153.609 290.661 153.789 290.344 154.051 290.102L154.17 289.629C154.154 289.591 154.138 289.553 154.123 289.515C153.764 288.667 153.164 287.945 152.397 287.438C151.63 286.931 150.73 286.662 149.811 286.666C148.892 286.669 147.995 286.944 147.232 287.457C146.468 287.97 145.873 288.697 145.521 289.547C144.115 292.94 142.324 296.339 141.883 299.927C141.688 301.513 141.77 303.121 142.125 304.679C138.821 297.46 137.105 289.614 137.094 281.674C137.093 279.681 137.204 277.69 137.425 275.709C137.608 274.086 137.862 272.474 138.186 270.874C139.957 262.191 143.759 254.052 149.281 247.126C151.953 245.666 154.114 243.42 155.473 240.692C155.965 239.711 156.313 238.664 156.506 237.584C156.204 237.623 155.369 233.025 155.596 232.743C155.176 232.105 154.424 231.787 153.966 231.164C151.684 228.066 148.54 228.607 146.899 232.818C143.393 234.59 143.359 237.529 145.51 240.356C146.879 242.154 147.067 244.587 148.268 246.513C148.144 246.671 148.015 246.824 147.892 246.983C145.633 249.891 143.665 253.015 142.015 256.308C142.416 252.618 141.937 248.887 140.617 245.419C139.28 242.187 136.773 239.465 134.565 236.671C131.913 233.316 126.475 234.78 126.008 239.034C126.003 239.075 125.999 239.117 125.994 239.158C126.322 239.343 126.643 239.54 126.957 239.748C127.352 240.012 127.658 240.389 127.835 240.83C128.012 241.271 128.051 241.755 127.949 242.219C127.846 242.683 127.606 243.105 127.259 243.43C126.913 243.755 126.477 243.968 126.008 244.04L125.96 244.048C126.077 245.232 126.283 246.405 126.578 247.557C123.745 258.527 129.86 262.523 138.591 262.702C138.784 262.801 138.972 262.9 139.165 262.994C137.507 267.7 136.467 272.601 136.071 277.575C135.847 280.51 135.86 283.458 136.11 286.39L136.096 286.287C135.463 283.026 133.726 280.083 131.178 277.957C127.394 274.843 122.048 273.697 117.966 271.195C117.532 270.916 117.028 270.767 116.512 270.765C115.996 270.764 115.491 270.911 115.056 271.187C114.621 271.464 114.274 271.86 114.056 272.328C113.838 272.796 113.758 273.316 113.826 273.828C113.831 273.865 113.837 273.901 113.842 273.938C114.451 274.186 115.043 274.472 115.616 274.794C115.944 274.979 116.265 275.176 116.58 275.384C116.974 275.648 117.28 276.025 117.457 276.466C117.633 276.907 117.673 277.391 117.571 277.855C117.468 278.319 117.228 278.742 116.881 279.067C116.535 279.391 116.099 279.604 115.63 279.677L115.582 279.684C115.547 279.689 115.518 279.694 115.483 279.699C116.523 282.185 117.982 284.474 119.797 286.465C121.568 296.041 129.175 296.95 137.311 294.161H137.316C138.209 298.046 139.503 301.828 141.176 305.446H154.964C155.013 305.292 155.058 305.134 155.102 304.981C153.826 305.061 152.545 304.984 151.287 304.753C152.31 303.496 153.333 302.229 154.356 300.972C154.379 300.948 154.4 300.923 154.42 300.897C154.939 300.254 155.463 299.615 155.982 298.972L155.982 298.971C156.01 296.999 155.783 295.031 155.309 293.116Z" fill="#F2F2F2"/>
<path d="M49.2576 272.23L53.0619 276.257L70.7265 263.15L65.1119 257.206L49.2576 272.23Z" fill="#A0616A"/>
<path d="M55.4916 274.458L51.1848 270.406L50.1271 269.413L39.1626 278.193L42.0148 281.212L45.3721 279.056L43.8297 283.133L51.3919 291.138C51.7542 291.522 52.2296 291.78 52.7486 291.874C53.2676 291.968 53.8031 291.894 54.277 291.662C54.7508 291.43 55.1381 291.052 55.3824 290.584C55.6268 290.116 55.7153 289.581 55.6351 289.059L54.003 278.485L56.8789 275.761L55.4916 274.458Z" fill="#2F2E41"/>
<path d="M132.866 125.609L131.66 138.797C131.66 138.797 129.555 148.733 131.012 147.927C132.47 147.122 129.856 150.747 130.545 153.89C131.233 157.033 124.665 180.472 127.64 178.044C130.615 175.616 125.921 192.39 122.952 200.666C122.043 203.224 121.108 205.814 120.168 208.384C119.983 208.905 119.797 209.419 119.606 209.939C118.387 213.284 117.169 216.579 116 219.689C115.833 220.123 115.672 220.556 115.511 220.984C115.505 220.996 115.505 221.008 115.499 221.008C111.652 231.148 108.355 239.127 107.038 240.446C106.351 241.134 95.46 249.013 84.4818 256.905C72.9595 265.187 61.3441 273.487 61.3441 273.487L50.4958 262.089C50.4958 262.089 50.7556 262.015 51.2442 261.866C52.1472 261.606 53.8172 261.117 56.0067 260.466C65.1354 257.772 53.5388 253.578 61.8268 250.58C64.1645 249.738 65.7231 249.081 66.0755 248.734C68.1352 246.721 70.8999 241.92 72.2049 243.934C73.5098 245.947 79.4289 230.987 81.1358 229.507C82.0511 228.708 85.0385 224.973 87.5991 221.69C89.8006 218.865 91.6933 216.369 91.6933 216.369C91.6933 216.369 91.7304 215.031 91.786 212.9C91.8666 209.747 91.9841 204.847 92.1079 199.941C92.1016 199.935 92.1016 199.935 92.1079 199.935C92.1511 198.089 92.1943 196.243 92.2378 194.49C92.2686 193.134 92.2994 191.827 92.3305 190.619C92.4108 187.001 92.4664 184.263 92.4664 183.582C92.4664 181.346 92.4664 183.086 94.2291 181.736C94.4924 181.529 94.7423 181.305 94.9775 181.067C95.3544 180.727 95.702 180.356 96.0167 179.958C96.1466 179.68 95.3363 180.057 94.2847 179.847C93.7153 179.732 93.1887 179.462 92.7632 179.066C90.549 177.072 92.9366 170.939 92.9366 170.939C87.902 160.855 88.2671 152.585 90.6233 146.211C92.3853 141.637 95.1819 137.535 98.7935 134.225C100.168 132.914 101.666 131.737 103.266 130.713L103.42 129.877L105.121 120.654C106.025 120.156 106.966 119.727 107.935 119.371C110.956 118.286 114.197 117.962 117.373 118.43C120.529 118.887 123.584 119.878 126.409 121.36C128.718 122.522 130.885 123.948 132.866 125.609Z" fill="#2F2E41"/>
<path d="M85.3638 292.777L90.8751 293.29L95.5193 271.769L87.3844 271.011L85.3638 292.777Z" fill="#A0616A"/>
<path d="M101.237 301.213L93.0478 294.343L93.4189 290.391L91.5142 290.329L85.6139 290.137H85.6075L84.1604 290.088L81.7048 303.926L85.8425 304.31L86.9372 300.47L88.465 304.558L90.6544 304.762L99.4184 305.58C99.4927 305.586 99.573 305.592 99.6473 305.592C99.9957 305.593 100.34 305.519 100.658 305.376C100.976 305.233 101.259 305.024 101.49 304.762C101.849 304.369 102.069 303.868 102.115 303.337C102.151 302.939 102.09 302.537 101.937 302.167C101.784 301.797 101.544 301.469 101.237 301.213Z" fill="#2F2E41"/>
<path d="M116 219.689C113.903 231.118 105.028 257.914 99.6597 273.599C97.2166 280.765 95.5097 285.616 95.5097 285.616L92.7265 284.736H92.7201L88.0135 283.249L86.3003 282.704H86.294L84.2159 282.041C84.2159 282.041 84.4572 269.244 84.482 256.905C84.5004 251.732 84.4756 246.634 84.3769 242.596C84.2655 238.192 84.0737 235.039 83.7584 234.413C82.4532 231.848 84.6366 231.576 86.9436 230.932C89.2565 230.281 87.4506 229.303 86.5537 227.221C85.9479 225.834 87.1414 223.982 87.9888 222.928C88.2226 222.632 88.4724 222.349 88.7371 222.08C88.7371 222.08 88.3288 221.937 87.5992 221.69C89.8008 218.865 91.6934 216.369 91.6934 216.369C91.6934 216.369 91.7305 215.031 91.7861 212.9C91.8667 209.747 91.9842 204.847 92.108 199.941C92.1017 199.935 92.1017 199.935 92.108 199.935C92.1512 198.089 92.1944 196.243 92.2379 194.49C95.7755 197.21 99.2143 199.873 102.332 202.339C102.335 202.342 102.338 202.345 102.341 202.35C102.343 202.354 102.344 202.359 102.344 202.363C109.834 208.291 115.456 213.049 116.247 214.56C116.606 215.241 116.482 217.063 116 219.689Z" fill="#2F2E41"/>
<path d="M300.389 17.8971C301.42 17.8006 302.448 18.1107 303.254 18.7617C304.06 19.4126 304.581 20.3529 304.705 21.3825C304.727 21.5921 304.732 21.8033 304.719 22.0137L317.474 27.4686L316.987 34.9242L300.322 25.5598C299.455 25.4393 298.652 25.0346 298.038 24.4089C297.425 23.7832 297.035 22.9718 296.931 22.1012C296.876 21.6052 296.92 21.1033 297.058 20.6241C297.197 20.145 297.429 19.6979 297.741 19.3084C298.052 18.919 298.437 18.5948 298.874 18.3544C299.31 18.1139 299.79 17.962 300.285 17.9072C300.32 17.9034 300.354 17.9 300.389 17.8971Z" fill="#FFB6B6"/>
<path d="M387.164 63.9196C386.849 62.4741 386.263 61.1015 385.438 59.8745C385.209 59.5253 384.959 59.1902 384.69 58.8709C383.688 57.6756 382.754 56.5792 381.888 55.6004C381.362 54.987 380.849 54.4172 380.366 53.8909C377.565 50.8122 375.728 49.1832 374.887 49.0468C374.478 48.9787 374.076 48.9291 373.687 48.8795C371.689 48.6318 370.242 48.4521 370.199 46.3398C370.194 46.0371 370.215 45.7346 370.26 45.4354C370.335 44.9329 370.445 44.4362 370.588 43.9488C370.67 43.6725 370.734 43.3911 370.78 43.1064C370.842 42.7411 370.817 42.4683 370.619 42.301C370.372 42.0968 369.957 42.1277 369.178 42.4374C369.054 42.487 368.912 42.5427 368.763 42.6107C368.714 42.6295 368.665 42.6543 368.609 42.6791C368.51 42.7223 368.399 42.7719 368.288 42.8276C367.353 43.2737 365.912 43.3294 364.267 43.1621C359.412 42.6667 352.844 40.2137 352.763 40.1826L311.399 24.0836L311.016 24.703L310.106 26.1772L309.791 26.685L309.432 27.2673L307.867 29.7946L307.076 31.0707L320.435 41.1613L321.888 42.2577L323.138 43.2056L348.644 62.4762L358.156 68.7634L360.278 70.1632L369.32 76.1346C370.62 76.9947 372.079 77.5852 373.61 77.8715C375.141 78.1578 376.714 78.1339 378.236 77.8014C379.758 77.4688 381.198 76.8343 382.471 75.9352C383.744 75.0362 384.825 73.8909 385.648 72.5668C387.254 69.9902 387.797 66.8897 387.164 63.9196Z" fill="#E6E6E6"/>
<path d="M446.382 306H0.618488C0.454455 306 0.297139 305.935 0.18115 305.819C0.0651615 305.702 0 305.545 0 305.381C0 305.216 0.0651615 305.059 0.18115 304.943C0.297139 304.826 0.454455 304.761 0.618488 304.761H446.382C446.546 304.761 446.703 304.826 446.819 304.943C446.935 305.059 447 305.216 447 305.381C447 305.545 446.935 305.702 446.819 305.819C446.703 305.935 446.546 306 446.382 306Z" fill="#E6E6E6"/>
<path d="M101.998 103.316L103.157 114.083L102.475 128.202L133.7 124.487L136.633 103.316L132.895 103.353L101.998 103.316Z" fill="#FFB6B6"/>
<path d="M128.558 68.5401L116.806 59.2486L110.638 58.8893L101.485 64.7621L99.2434 76.2138L93.9427 89.1094L101.717 123.91C101.717 123.91 102.447 126.408 100.536 126.708C98.6249 127.008 98.854 130.689 98.854 130.689C98.854 130.689 99.2431 133.879 97.3876 134.16C95.5322 134.441 90.5845 134.441 94.914 140.016C99.2434 145.591 133.486 124.505 133.486 124.505L138.46 98.3688C138.46 98.3688 148.105 85.3939 137.718 77.963L128.558 68.5401Z" fill="#E6E6E6"/>
<path d="M77.2577 147.554C76.74 146.907 76.3701 146.154 76.1743 145.349C75.9785 144.543 75.9615 143.704 76.1244 142.891C76.2874 142.078 76.6264 141.31 77.1175 140.643C77.6086 139.975 78.2399 139.423 78.9669 139.027L93.7481 89.3448L102.991 94.0052L86.8936 141.625C87.4784 142.892 87.5786 144.33 87.1753 145.667C86.772 147.003 85.8933 148.145 84.7055 148.876C83.5178 149.607 82.1036 149.876 80.7309 149.633C79.3582 149.389 78.1225 148.65 77.2577 147.554Z" fill="#A0616A"/>
<path d="M103.607 64.3024C103.607 64.3024 100.965 62.8961 99.1579 68.9816C97.7111 73.8535 85.9713 102.873 85.8216 109.928C84.8555 110.133 83.9849 110.654 83.3471 111.409C82.7092 112.165 82.3404 113.111 82.2986 114.099L96.8138 116.047C99.3502 113.905 100.016 111.011 99.0342 110.152L102.186 101.531L115.334 74.1029L105.535 65.285L103.607 64.3024Z" fill="#E6E6E6"/>
<path d="M181.166 131.224C181.354 130.416 181.362 129.577 181.191 128.766C181.02 127.955 180.673 127.191 180.175 126.528C179.677 125.866 179.04 125.321 178.309 124.931C177.578 124.542 176.77 124.318 175.943 124.275L142.035 85.4901L134.843 94.0859L169.918 130.051C169.938 131.447 170.468 132.787 171.409 133.817C172.35 134.848 173.635 135.497 175.022 135.641C176.408 135.786 177.8 135.416 178.932 134.602C180.065 133.788 180.86 132.586 181.166 131.224Z" fill="#A0616A"/>
<path d="M121.461 67.571C121.461 67.571 123.237 65.1586 127.494 69.863C130.902 73.6292 154.017 94.7102 157.198 101.007C158.158 100.773 159.168 100.866 160.069 101.271C160.97 101.675 161.711 102.369 162.176 103.242L149.929 111.285C146.717 110.452 144.868 108.131 145.382 106.931L138.818 100.523L115.12 81.4866L120.147 69.2919L121.461 67.571Z" fill="#E6E6E6"/>
<path d="M247.907 174.06C295.728 174.06 334.495 135.234 334.495 87.3392C334.495 39.4445 295.728 0.618164 247.907 0.618164C200.085 0.618164 161.318 39.4445 161.318 87.3392C161.318 135.234 200.085 174.06 247.907 174.06Z" fill="#1E1E1E"/>
<path opacity="0.2" d="M243.811 118.032C239.844 122.005 234.464 124.237 228.855 124.237C223.245 124.237 217.865 122.005 213.898 118.032C210.489 114.617 208.348 110.138 207.828 105.337C207.308 100.536 208.441 95.7013 211.04 91.6336L206.386 96.3885C202.42 100.361 200.191 105.749 200.191 111.368C200.191 116.986 202.42 122.374 206.386 126.347C210.353 130.32 215.733 132.552 221.343 132.552C226.952 132.552 232.332 130.32 236.299 126.347L246.611 115.623L246.768 114.957L243.811 118.032Z" fill="black"/>
<path opacity="0.2" d="M253.634 51.7792C258.271 48.6165 263.972 47.428 269.483 48.4752C274.995 49.5223 279.865 52.7194 283.023 57.363C285.736 61.3547 287.007 66.155 286.624 70.9688C286.241 75.7825 284.228 80.3209 280.918 83.8323L286.375 80.0294C291.012 76.8667 294.204 71.9889 295.249 66.469C296.295 60.9491 295.108 55.2393 291.95 50.5957C288.793 45.9521 283.922 42.755 278.411 41.7078C272.899 40.6607 267.198 41.8492 262.562 45.0118L250.434 53.623L250.156 54.2487L253.634 51.7792Z" fill="black"/>
<path d="M221.343 135.202C216.792 135.202 212.344 133.851 208.561 131.319C204.777 128.787 201.828 125.188 200.087 120.978C198.345 116.767 197.89 112.134 198.778 107.664C199.665 103.195 201.857 99.0889 205.074 95.8664L224.599 75.9159C226.735 73.7734 229.271 72.0734 232.063 70.9131C234.855 69.7529 237.848 69.155 240.871 69.1538C243.894 69.1526 246.887 69.7481 249.68 70.9061C252.473 72.0641 255.011 73.7621 257.149 75.9029C257.497 76.2514 257.692 76.724 257.692 77.2168C257.692 77.7096 257.497 78.1822 257.149 78.5307C256.801 78.8791 256.329 79.0749 255.837 79.0749C255.345 79.0749 254.873 78.8791 254.525 78.5307C250.906 74.9065 245.998 72.8704 240.88 72.8705C235.763 72.8705 230.855 74.9065 227.236 78.5307C224.368 88.6561 218.172 95.6036 207.711 98.4812C205.917 100.274 204.492 102.404 203.52 104.749C202.547 107.094 202.045 109.608 202.043 112.147C202.041 114.686 202.538 117.201 203.507 119.547C204.476 121.894 205.896 124.026 207.688 125.822C209.48 127.618 211.608 129.043 213.95 130.016C216.292 130.988 218.802 131.489 221.337 131.489C223.872 131.489 226.383 130.989 228.725 130.018C231.067 129.046 233.195 127.621 234.987 125.825C234.565 121.671 235.776 117.767 245.275 115.126C245.444 114.95 245.646 114.808 245.869 114.71C246.093 114.612 246.334 114.559 246.578 114.554C246.822 114.549 247.064 114.592 247.292 114.681C247.519 114.77 247.726 114.904 247.902 115.073C248.078 115.243 248.219 115.445 248.316 115.669C248.413 115.894 248.466 116.135 248.47 116.379C248.474 116.624 248.43 116.866 248.341 117.094C248.251 117.321 248.117 117.529 247.948 117.704L237.635 128.428C235.503 130.581 232.964 132.289 230.167 133.451C227.37 134.614 224.371 135.209 221.343 135.202Z" fill="white"/>
<path d="M253.041 106.979C250.019 106.987 247.024 106.395 244.232 105.236C241.439 104.078 238.904 102.376 236.773 100.23C236.425 99.8811 236.229 99.4084 236.229 98.9155C236.229 98.4227 236.425 97.95 236.773 97.6016C237.121 97.2531 237.593 97.0574 238.085 97.0574C238.577 97.0575 239.049 97.2533 239.397 97.6019C241.189 99.3965 243.316 100.82 245.657 101.791C247.998 102.763 250.507 103.262 253.041 103.262C255.575 103.262 258.084 102.763 260.425 101.791C262.767 100.82 264.894 99.3965 266.685 97.6019C269.158 82.6832 279.24 80.5777 288.003 76.2526C289.795 74.458 291.216 72.3275 292.186 69.9828C293.155 67.6381 293.654 65.125 293.654 62.5871C293.654 60.0492 293.155 57.5361 292.186 55.1914C291.216 52.8467 289.794 50.7162 288.003 48.9216C286.211 47.1271 284.084 45.7035 281.742 44.7323C279.401 43.7611 276.892 43.2613 274.358 43.2613C271.824 43.2613 269.315 43.7612 266.974 44.7324C264.632 45.7037 262.505 47.1272 260.713 48.9218C258.276 55.9654 255.882 63.0923 248.622 61.0316C248.45 61.2042 248.245 61.341 248.02 61.4344C247.795 61.5278 247.554 61.5759 247.31 61.5759C246.818 61.5759 246.346 61.3801 245.998 61.0317C245.65 60.6832 245.455 60.2106 245.455 59.7178C245.455 59.2249 245.65 58.7523 245.998 58.4038L258.09 46.294C260.226 44.1543 262.762 42.457 265.554 41.299C268.345 40.141 271.337 39.545 274.358 39.545C277.379 39.545 280.371 40.141 283.162 41.299C285.954 42.4569 288.49 44.1542 290.626 46.2938C292.763 48.4335 294.457 50.9736 295.613 53.7692C296.77 56.5648 297.365 59.5611 297.365 62.587C297.365 65.613 296.77 68.6093 295.614 71.4049C294.457 74.2005 292.763 76.7406 290.626 78.8803L269.309 100.23C267.178 102.376 264.643 104.078 261.85 105.237C259.058 106.395 256.064 106.987 253.041 106.979Z" fill="white"/>
<path d="M323.138 43.2056C319.501 37.0201 315.125 31.3017 310.106 26.1772C308.987 25.0375 307.83 23.9224 306.649 22.8384C305.993 22.2377 305.332 21.6491 304.657 21.0729C303.377 19.9704 302.06 18.9049 300.718 17.8768C285.556 6.26179 266.993 -0.0216151 247.905 -5.48233e-06C199.824 -5.48233e-06 160.698 39.1793 160.698 87.3404C160.696 92.6509 161.178 97.9504 162.139 103.173C162.141 103.202 162.145 103.231 162.152 103.26C162.591 105.657 163.135 108.023 163.766 110.346C168.235 126.742 177.383 141.475 190.09 152.74C202.796 164.006 218.508 171.313 235.3 173.766C252.092 176.22 269.234 173.713 284.624 166.553C300.015 159.393 312.985 147.891 321.944 133.457C323.15 131.512 324.284 129.518 325.346 127.473C332.118 114.385 335.468 99.791 335.082 85.0546C334.696 70.3182 330.587 55.9202 323.138 43.2056ZM247.905 173.442C236.614 173.446 225.433 171.221 215.001 166.896C204.569 162.57 195.09 156.228 187.107 148.232C179.123 140.236 172.79 130.743 168.471 120.295C164.152 109.847 161.931 98.6485 161.935 87.3404C161.935 39.8604 200.504 1.23887 247.905 1.23887C259.376 1.24538 270.73 3.55173 281.297 8.02197C291.864 12.4922 301.43 19.0359 309.432 27.2673C311.519 29.401 313.489 31.6467 315.333 33.9946C317.158 36.292 318.861 38.6842 320.435 41.1613C326.996 51.4843 331.284 63.0899 333.011 75.204C334.739 87.318 333.867 99.6618 330.454 111.412C329.694 114.038 328.803 116.609 327.801 119.13C326.793 121.657 325.674 124.135 324.437 126.538C317.203 140.635 306.237 152.467 292.739 160.74C279.24 169.012 263.73 173.407 247.905 173.442Z" fill="#3F3D56"/>
<path d="M366.538 292.974L360.854 292.926L358.337 270.453L366.727 270.524L366.538 292.974Z" fill="#FFB6B6"/>
<path d="M368.046 290.348L366.562 290.249L360.507 289.834L358.558 289.704L358.521 293.773L349.442 299.943C348.994 300.248 348.654 300.689 348.474 301.201C348.293 301.713 348.281 302.269 348.438 302.789C348.595 303.308 348.915 303.764 349.349 304.089C349.783 304.414 350.31 304.591 350.852 304.595L362.152 304.688L364.131 300.674L364.855 304.713L369.122 304.75L368.046 290.348Z" fill="#2F2E41"/>
<path d="M426.39 288.814L420.956 290.487L411.784 269.824L419.804 267.355L426.39 288.814Z" fill="#FFB6B6"/>
<path d="M427.037 285.857L425.59 286.21L419.696 287.641L417.797 288.106L418.991 292.002L412.193 300.624C411.898 301 411.715 301.452 411.664 301.927C411.613 302.402 411.696 302.883 411.904 303.313C412.113 303.743 412.438 304.106 412.842 304.36C413.246 304.614 413.714 304.749 414.191 304.75C414.443 304.749 414.693 304.712 414.934 304.638L425.739 301.312L426.413 296.883L428.324 300.513L432.4 299.256L427.037 285.857Z" fill="#2F2E41"/>
<path d="M355.104 104.013L344.256 135.588L343.897 138.115C341.164 140.714 344.598 141.57 343.31 142.256C342.023 142.941 341.157 144.863 342.892 145.206C344.627 145.55 350.221 268.705 357.6 273.487C364.979 278.269 369.469 281.728 368.114 274.726C367.568 271.905 368.34 256.779 369.457 239.723C369.584 237.79 371.584 235.744 369.849 233.864C368.114 231.985 370.063 230.748 370.172 229.188C371.728 206.915 373.525 184.926 373.525 184.926C373.525 184.926 385.026 224.481 388.012 221.419C390.998 218.357 389.816 225.896 390.729 228.149C391.491 230.032 388.238 233.73 393.02 233.786C397.802 233.843 409.032 272.292 410.171 272.248C412.428 272.162 418.773 272.405 422.541 271.629C424.402 271.245 416.143 242.136 409.246 216.999C408.696 214.994 405.703 214.948 407.628 211.077C409.553 207.207 399.974 182.166 400.796 181.008C402.978 177.934 403.809 176.597 401.657 176.396C399.506 176.195 398.87 177.377 398.754 174.395C398.637 171.413 398.266 164.06 398.266 164.06C398.266 164.06 396.708 134.978 385.794 118.91L384.863 109.364L355.104 104.013Z" fill="#2F2E41"/>
<path d="M382.206 43.7284L367.82 45.78L366.952 56.2132L359.853 67.3352C359.853 67.3352 344.073 78.4572 355.078 96.0265C350.89 111.161 346.726 125.676 342.756 135.353C339.664 154.555 367.368 156.396 399.039 149.6C399.039 149.6 398.602 141.389 395.728 137.442C392.854 133.494 394.418 132.633 394.418 132.633L392.41 125.258C393.546 114.599 389.709 113.642 387.906 108.717L393.381 57.617L382.206 43.7284Z" fill="#E6E6E6"/>
<path d="M313.143 133.046C313.296 132.02 313.842 131.094 314.666 130.466C315.489 129.837 316.525 129.555 317.553 129.679C317.762 129.708 317.968 129.754 318.169 129.817L326.502 118.714L333.615 120.967L320.557 134.94C320.233 135.755 319.649 136.439 318.896 136.886C318.143 137.334 317.263 137.519 316.394 137.412C315.9 137.347 315.424 137.185 314.993 136.936C314.561 136.686 314.183 136.354 313.88 135.958C313.577 135.562 313.354 135.111 313.225 134.629C313.096 134.147 313.063 133.644 313.128 133.149C313.133 133.115 313.138 133.08 313.143 133.046Z" fill="#FFB6B6"/>
<path d="M387.163 63.9196C386.959 63.6655 386.737 63.4178 386.502 63.1761C384.868 61.4899 382.764 60.337 380.466 59.8684C378.167 59.3998 375.78 59.6373 373.619 60.5498C373.408 60.6363 373.198 60.7355 372.994 60.8348C365.603 64.4706 361.614 66.8927 361.131 68.0263C360.964 68.4104 360.822 68.7882 360.68 69.1536C360.544 69.5129 360.414 69.8535 360.278 70.1632C359.709 71.4889 359.053 72.3128 357.383 71.9411C356.83 71.8054 356.295 71.5994 355.794 71.328C355.565 71.2164 355.355 71.0987 355.157 70.9871C354.439 70.5909 353.92 70.306 353.567 70.5661C353.227 70.8198 353.215 71.4641 353.524 72.957C353.626 73.5801 353.61 74.217 353.475 74.8338C353.066 76.6331 352.425 78.3718 351.57 80.0061C350.288 82.568 348.846 85.0465 347.253 87.427L332.539 108.438L331.543 109.857L330.454 111.412L321.771 123.813L322.284 124.339L324.437 126.538L324.913 127.028L325.346 127.473L326.465 128.619L327.517 129.691L350.976 110.55L353.592 108.413L358.28 104.585L367.885 96.7497L386.063 79.9009C387.21 78.8458 388.133 77.5694 388.776 76.1484C389.419 74.7274 389.769 73.191 389.804 71.6314C389.804 71.5261 389.811 71.4269 389.811 71.3216C389.818 68.6205 388.881 66.0021 387.163 63.9196Z" fill="#E6E6E6"/>
<path d="M373.569 43.3486C382.448 43.3486 389.645 36.1403 389.645 27.2484C389.645 18.3564 382.448 11.1481 373.569 11.1481C364.691 11.1481 357.494 18.3564 357.494 27.2484C357.494 36.1403 364.691 43.3486 373.569 43.3486Z" fill="#FFB6B6"/>
<path d="M394.873 49.5737C397.031 52.6662 398.474 56.2009 399.098 59.9213C397.359 61.0354 395.335 61.6205 393.271 61.6058C393.201 61.3351 393.131 61.0644 393.051 60.7937C392.453 58.6973 391.563 56.6957 390.408 54.8478C390.566 56.8405 390.297 58.844 389.617 60.7235C388.526 60.2271 387.358 59.9251 386.163 59.8311C385.19 59.8311 384.23 60.0576 383.36 60.4929C382.349 57.1339 381.418 54.0456 380.757 51.8297C380.737 57.3846 372.608 62.2275 363.737 61.5257C363.417 61.3251 366.631 52.1907 366.32 51.9801C365.61 51.5089 364.919 50.9975 364.228 50.4962C367.131 46.0041 370.285 41.1912 369.744 40.4693C369.784 41.3618 366.601 45.6532 363.137 49.704C361.215 48.2903 372.137 25.2887 366.741 23.4238C366.651 24.2359 365.459 24.2359 364.008 24.0655C363.625 22.7254 363.055 21.4461 362.316 20.2652C362.412 21.4547 362.269 22.6515 361.895 23.7847C360.462 23.7851 359.032 23.9363 357.631 24.2359C357.306 23.7247 356.948 23.2357 356.559 22.772C356.598 23.3371 356.581 23.9046 356.509 24.4665C355.078 24.7773 353.896 25.1383 353.726 25.4291C352.605 25.018 354.517 23.163 353.816 22.2004C352.034 19.794 354.677 16.2846 356.349 13.798C359.783 8.70437 367.322 6.93964 372.658 9.9978C372.898 9.16556 374.129 8.6141 375.711 8.24311C376.382 8.09512 377.068 8.03113 377.754 8.0526C384.561 8.17292 394.012 13.7979 394.383 20.6062C394.413 21.288 394.463 22.03 394.513 22.8221C394.993 30.4425 394.403 37.4713 399.599 43.0462C401.481 45.0616 401.501 54.6071 400.78 59.5203C398.908 57.545 397.576 49.8645 394.873 49.5737Z" fill="#2F2E41"/>
<path d="M217.822 89.5145C218.846 89.5145 219.677 88.6825 219.677 87.6562C219.677 86.6299 218.846 85.7979 217.822 85.7979C216.797 85.7979 215.966 86.6299 215.966 87.6562C215.966 88.6825 216.797 89.5145 217.822 89.5145Z" fill="#1E1E1E"/>
<path d="M276.578 88.2756C277.603 88.2756 278.433 87.4436 278.433 86.4173C278.433 85.391 277.603 84.559 276.578 84.559C275.553 84.559 274.722 85.391 274.722 86.4173C274.722 87.4436 275.553 88.2756 276.578 88.2756Z" fill="#1E1E1E"/>
<path d="M99.9566 33.943C98.5445 37.4652 94.5608 44.3917 94.0212 48.1702L94.2641 47.931C94.7274 48.7236 95.2539 49.4775 95.8383 50.1853C96.8859 49.0834 98.1512 48.2121 99.5535 47.6269C98.7877 49.2005 98.3443 50.9117 98.2492 52.6596C99.7525 57.3793 106.703 55.2776 110.775 54.7622C114.841 59.4208 120.251 60.6365 127.336 57.9582C129.318 58.1625 131.536 58.2865 132.924 57.1139C134.313 55.9413 133.486 53.7697 134.233 52.1273C139.554 40.428 134.643 36.207 130.471 30.9021C129.553 29.7347 129.557 27.9926 128.439 26.8787C126.889 25.3348 124.513 24.8599 122.322 24.4795C122.891 24.5096 123.459 24.3924 123.969 24.1392C124.48 23.8861 124.917 23.5055 125.239 23.0341C125.52 22.5593 125.666 22.0156 125.659 21.4632C125.652 20.9107 125.493 20.3709 125.199 19.9034C124.415 18.6024 122.787 17.8459 121.217 17.6569C119.669 17.5517 118.115 17.6855 116.608 18.0537C115.632 18.1823 114.686 18.4849 113.817 18.9471C113.406 19.1664 113.073 19.5058 112.86 19.9201C112.648 20.3344 112.567 20.8038 112.628 21.2655C112.759 21.6919 112.984 22.0832 113.287 22.4102C113.59 22.7372 113.962 22.9915 114.377 23.1541C115.01 23.4219 115.675 23.6043 116.355 23.6964C113.23 23.2903 110.055 23.8468 107.254 25.2919C103.743 27.1676 101.374 30.4227 99.9566 33.943Z" fill="#2F2E41"/>
<path d="M118.968 53.6897C125.9 53.6897 131.519 48.0619 131.519 41.1196C131.519 34.1774 125.9 28.5496 118.968 28.5496C112.037 28.5496 106.417 34.1774 106.417 41.1196C106.417 48.0619 112.037 53.6897 118.968 53.6897Z" fill="#A0616A"/>
<path d="M106.891 34.3798C107.619 36.5825 109.698 37.2922 111.621 37.7349C112.227 37.8764 112.836 38.0082 113.452 38.1255C113.679 37.8412 113.92 37.5626 114.173 37.2992C115.22 36.1973 116.485 35.326 117.888 34.7408C117.281 35.9838 116.878 37.3163 116.694 38.6874C117.856 38.8563 119.025 38.9943 120.199 39.1014C121.193 39.3133 122.231 39.1346 123.097 38.6023C123.963 38.07 124.592 37.2247 124.854 36.2412C125.923 37.9929 127.188 39.6426 128.917 40.3384C129.906 40.6943 130.983 40.7236 131.99 40.4219C132.997 40.1202 133.88 39.5035 134.512 38.6622C135.509 37.2897 136.2 35.7188 136.539 34.0557C137.03 32.1051 137.303 29.8581 136.339 28.6205C135.567 27.6188 134.235 27.6009 133.007 27.6897C130.295 27.8981 127.611 28.3853 124.999 29.1437L124.778 29.6417C125.227 26.9405 124.253 24.3415 122.451 23.4172C121.236 22.7992 119.774 22.9029 118.353 23.0282C116.528 23.1098 114.725 23.459 113.001 24.0648C111.024 24.8265 109.33 26.1816 108.151 27.9445C106.89 29.8621 106.263 32.4775 106.891 34.3798Z" fill="#2F2E41"/>
<path d="M124.783 22.6311C124.66 22.5945 124.98 22.6415 124.869 22.6445C124.925 22.6413 124.979 22.6336 125.033 22.6215C125.043 22.6196 125.168 22.5797 125.085 22.6091C125.271 22.5533 125.437 22.4446 125.563 22.2962C125.858 21.931 126.089 21.5188 126.248 21.0767C126.447 20.4924 126.768 19.957 127.188 19.5056C127.308 19.3855 127.454 19.2953 127.614 19.2423C127.775 19.1893 127.946 19.175 128.113 19.2006C128.281 19.2262 128.44 19.2909 128.577 19.3895C128.715 19.4881 128.827 19.6178 128.905 19.7681C129.064 20.348 129.01 20.9657 128.752 21.5088C128.572 22.0614 128.305 22.5813 127.959 23.0485C127.381 23.8125 126.593 24.3915 125.692 24.7148C124.648 25.0943 123.511 25.1269 122.447 24.8077C122.307 24.7493 122.186 24.6513 122.101 24.5256C122.015 24.3999 121.967 24.2518 121.964 24.0996C121.961 23.9473 122.002 23.7973 122.082 23.668C122.162 23.5386 122.278 23.4354 122.416 23.371L124.189 22.6441C124.283 22.6029 124.383 22.5806 124.485 22.5784C124.587 22.5762 124.688 22.5941 124.783 22.6311C124.879 22.6681 124.965 22.7235 125.039 22.7941C125.113 22.8648 125.172 22.9492 125.213 23.0427C125.254 23.1362 125.276 23.2369 125.278 23.339C125.281 23.4411 125.263 23.5426 125.226 23.6378C125.189 23.733 125.134 23.82 125.063 23.8937C124.993 23.9675 124.908 24.0267 124.815 24.0678L123.042 24.7947L123.01 23.358C123.232 23.422 123.459 23.461 123.689 23.4743C123.934 23.4989 124.182 23.4884 124.424 23.4432C124.656 23.4127 124.884 23.357 125.105 23.2771C125.245 23.2255 125.384 23.1668 125.519 23.1012C125.568 23.0774 125.616 23.0526 125.665 23.027C125.661 23.0288 125.867 22.9085 125.777 22.965C126.006 22.8182 126.221 22.6504 126.42 22.4636C126.49 22.3974 126.554 22.3255 126.612 22.2487C126.713 22.1245 126.807 21.9944 126.893 21.8591C127.068 21.5727 127.206 21.2657 127.305 20.945C127.35 20.8103 127.388 20.6732 127.419 20.5345C127.427 20.4584 127.441 20.3829 127.46 20.3086C127.526 20.1317 127.447 20.412 127.523 20.4886L127.85 20.7299C127.911 20.7482 127.976 20.7524 128.039 20.7423C128.103 20.7321 128.163 20.7079 128.215 20.6713C128.254 20.6167 128.246 20.6258 128.19 20.6985C128.125 20.784 128.066 20.8736 128.012 20.9666C127.895 21.1857 127.789 21.4106 127.695 21.6404C127.5 22.1292 127.253 22.5957 126.959 23.032C126.671 23.4734 126.251 23.8124 125.76 24.0007C125.268 24.189 124.729 24.217 124.221 24.0808C124.03 24.0047 123.876 23.8565 123.794 23.6682C123.711 23.4798 123.705 23.2665 123.778 23.0741C123.856 22.8845 124.004 22.7325 124.192 22.6499C124.379 22.5674 124.591 22.5606 124.783 22.6311Z" fill="#2F2E41"/>
</g>
<defs>
<clipPath id="clip0_10_310">
<rect width="447" height="306" fill="white"/>
</clipPath>
</defs>
</svg>
