<svg width="467" height="456" viewBox="0 0 467 456" fill="none" xmlns="http://www.w3.org/2000/svg">
<g clip-path="url(#clip0_10_274)">
<path d="M144.211 334.511H85.7141C84.2393 334.511 83.0393 333.311 83.0393 331.836C83.0393 330.361 84.2393 329.162 85.7141 329.162H144.211C145.686 329.162 146.886 330.361 146.886 331.836C146.886 333.311 145.686 334.511 144.211 334.511Z" fill="#1E1E1E"/>
<path d="M39.7379 348.828C39.7379 349.308 40.1238 349.694 40.6042 349.694H189.321C189.801 349.694 190.187 349.308 190.187 348.828C190.187 348.347 189.801 347.962 189.321 347.962H40.6042C40.1238 347.962 39.7379 348.347 39.7379 348.828Z" fill="#3F3D56"/>
<path d="M353.506 174.281C379.639 174.281 400.824 153.095 400.824 126.962C400.824 100.829 379.639 79.6433 353.506 79.6433C327.373 79.6433 306.188 100.829 306.188 126.962C306.188 153.095 327.373 174.281 353.506 174.281Z" fill="#0D3E78"/>
<path d="M0 408.621C0 409.101 0.385844 409.487 0.866324 409.487H381.076C381.557 409.487 381.942 409.101 381.942 408.621C381.942 408.14 381.557 407.755 381.076 407.755H0.866324C0.385844 407.755 0 408.14 0 408.621Z" fill="#3F3D56"/>
<path d="M5.4997 350.119L4.28345 348.787L122.988 240.466L165.756 259.638L211.938 180.438L249.881 162.149L285.037 220.742C304.017 171.604 351.616 120.195 408.653 68.0366L410.056 69.1727C356.561 120.389 310.791 171.838 284.816 223.883L252.299 169.527C250.763 166.959 247.535 165.967 244.822 167.23C224.081 176.88 206.782 192.633 195.236 212.381L166.307 261.863L159.704 258.902C137.619 249.002 111.764 253.151 93.8859 269.465L5.4997 350.119Z" fill="#3F3D56"/>
<path d="M411.329 77.8982L409.527 78.0234L406.619 71.7209L400.108 70.3983L399.855 68.6095L410.588 67.0843L411.329 77.8982Z" fill="#3F3D56"/>
<path d="M226.168 116.462L232.549 91.9313L257.407 90.7356L264.844 124.551L226.168 116.462Z" fill="#FFB6B6"/>
<path opacity="0.1" d="M226.168 116.462L232.549 91.9313L257.407 90.7356L264.844 124.551L226.168 116.462Z" fill="black"/>
<path d="M242.525 105.659C259.096 105.659 272.529 92.2259 272.529 75.6549C272.529 59.0838 259.096 45.6503 242.525 45.6503C225.954 45.6503 212.521 59.0838 212.521 75.6549C212.521 92.2259 225.954 105.659 242.525 105.659Z" fill="#FFB6B6"/>
<path d="M259.079 82.0059C259.079 82.0059 247.681 59.4221 234.326 60.726C220.972 62.0298 213.936 63.6156 213.936 63.6156C213.936 63.6156 209.972 46.0263 228.636 39.2606C228.636 39.2606 204.905 15.8678 233.158 4.39257C261.411 -7.08263 277.221 7.55254 277.221 7.55254C277.221 7.55254 298.134 28.4306 271.795 44.035C271.795 44.035 291.353 70.3432 267.673 92.0272C267.673 92.0272 272.97 74.4801 267.443 77.7161C261.917 80.9521 259.079 82.0059 259.079 82.0059Z" fill="#2F2E41"/>
<path d="M209.42 240.533L205.429 244.358L176.597 306.182L173.44 408.442H221.883L244.608 357.802L259.919 407.953H303.476L313.573 316.913L286.43 252.526L209.42 240.533Z" fill="#2F2E41"/>
<path d="M259.603 113.969H227.251L192.062 132.907L200.268 169.518C200.268 169.518 198.374 191.612 202.793 208.024C207.211 224.436 205.317 245.898 205.317 245.898L286.43 252.526L288.955 178.04L287.693 128.172L259.603 113.969Z" fill="#E6E6E6"/>
<path d="M197.427 133.222C197.427 133.222 177.859 133.853 174.703 146.478C171.547 159.103 169.022 224.121 169.022 224.121C169.022 224.121 170.916 262.701 192.062 244.357C213.208 226.014 211.314 170.465 211.314 170.465L197.427 133.222Z" fill="#E6E6E6"/>
<path d="M387.225 455.272H271.909C268.004 455.272 264.826 452.095 264.826 448.189V328.977C264.826 325.071 268.004 321.894 271.909 321.894H387.225C391.131 321.894 394.308 325.071 394.308 328.977V448.189C394.308 452.095 391.131 455.272 387.225 455.272Z" fill="white"/>
<path d="M387.225 456H271.909C267.602 456 264.098 452.496 264.098 448.189V328.977C264.098 324.67 267.602 321.166 271.909 321.166H387.225C391.532 321.166 395.036 324.67 395.036 328.977V448.189C395.036 452.496 391.532 456 387.225 456ZM271.909 322.622C268.405 322.622 265.554 325.472 265.554 328.977V448.189C265.554 451.693 268.405 454.544 271.909 454.544H387.225C390.729 454.544 393.58 451.693 393.58 448.189V328.977C393.58 325.472 390.729 322.622 387.225 322.622H271.909Z" fill="#3F3D56"/>
<path d="M334.118 423.954H324.613C323.456 423.954 322.515 423.227 322.515 422.334V381.413C322.515 380.52 323.456 379.793 324.613 379.793H334.118C335.275 379.793 336.216 380.52 336.216 381.413V422.334C336.216 423.227 335.275 423.954 334.118 423.954Z" fill="#1E1E1E"/>
<path d="M302.695 399.839C301.761 399.839 301 400.426 301 401.148V422.288C301 423.01 301.761 423.597 302.695 423.597H312.2C313.135 423.597 313.895 423.01 313.895 422.288V401.148C313.895 400.426 313.135 399.839 312.2 399.839H302.695Z" fill="#1E1E1E"/>
<path d="M356.036 423.954H346.531C345.374 423.954 344.433 423.227 344.433 422.334V355.272C344.433 354.379 345.374 353.652 346.531 353.652H356.036C357.193 353.652 358.134 354.379 358.134 355.272V422.334C358.134 423.227 357.193 423.954 356.036 423.954Z" fill="#1E1E1E"/>
<path d="M151.508 129.997H140.651C139.329 129.997 138.254 129.167 138.254 128.146V81.4031C138.254 80.3827 139.329 79.5527 140.651 79.5527H151.508C152.83 79.5527 153.905 80.3827 153.905 81.4031V128.146C153.905 129.167 152.83 129.997 151.508 129.997Z" fill="#1E1E1E"/>
<path d="M115.615 102.45C114.547 102.45 113.678 103.121 113.678 103.946V128.094C113.678 128.918 114.547 129.589 115.615 129.589H126.471C127.539 129.589 128.408 128.918 128.408 128.094V103.946C128.408 103.121 127.539 102.45 126.471 102.45H115.615Z" fill="#1E1E1E"/>
<path d="M176.544 129.997H165.688C164.366 129.997 163.291 129.167 163.291 128.146V51.5425C163.291 50.5221 164.366 49.6921 165.688 49.6921H176.544C177.866 49.6921 178.942 50.5221 178.942 51.5425V128.146C178.942 129.167 177.866 129.997 176.544 129.997Z" fill="#1E1E1E"/>
<path d="M311.888 339.239C317.512 338.7 321.384 331.102 320.538 322.262C320.248 318.727 319.116 315.312 317.237 312.304L316.153 302.3L316.319 302.25L319.043 254.816C319.676 243.787 315.311 232.95 306.9 225.788C301.896 221.528 296.558 219.371 293.126 224.754C287.43 233.686 294.808 270.505 299.652 291.438L301.531 313.807C300.255 317.118 299.79 320.687 300.177 324.214C301.021 333.051 306.265 339.777 311.888 339.239Z" fill="#FFB6B6"/>
<path d="M280.749 129.435C280.749 129.435 297.161 123.122 304.736 142.059C312.311 160.997 320.517 254.42 320.517 254.42L282.012 247.476L280.749 129.435Z" fill="#E6E6E6"/>
<path d="M55.3924 120.172H33.2934C31.8186 120.172 30.6187 118.972 30.6187 117.497C30.6187 116.023 31.8186 114.823 33.2934 114.823H55.3924C56.8671 114.823 58.0666 116.023 58.0666 117.497C58.0666 118.972 56.8671 120.172 55.3924 120.172Z" fill="#E6E6E6"/>
<path d="M55.3924 82.2596H33.2934C31.8186 82.2596 30.6187 81.0596 30.6187 79.5848C30.6187 78.11 31.8186 76.9105 33.2934 76.9105H55.3924C56.8671 76.9105 58.0666 78.11 58.0666 79.5848C58.0666 81.0596 56.8671 82.2596 55.3924 82.2596Z" fill="#E6E6E6"/>
<path d="M55.3924 54.9188H33.2934C31.8186 54.9188 30.6187 53.7188 30.6187 52.244C30.6187 50.7692 31.8186 49.5697 33.2934 49.5697H55.3924C56.8671 49.5697 58.0666 50.7692 58.0666 52.244C58.0666 53.7188 56.8671 54.9188 55.3924 54.9188Z" fill="#E6E6E6"/>
<path d="M29.7322 130.129C29.7322 130.609 30.118 130.995 30.5985 130.995H179.315C179.795 130.995 180.181 130.609 180.181 130.129C180.181 129.649 179.795 129.263 179.315 129.263H30.5985C30.118 129.263 29.7322 129.649 29.7322 130.129Z" fill="#3F3D56"/>
<path d="M316.551 354.347C316.551 354.827 316.937 355.213 317.417 355.213H466.134C466.614 355.213 467 354.827 467 354.347C467 353.866 466.614 353.48 466.134 353.48H317.417C316.937 353.48 316.551 353.866 316.551 354.347Z" fill="#3F3D56"/>
<path d="M272.873 424.961C272.873 425.441 273.259 425.827 273.739 425.827H422.456C422.936 425.827 423.322 425.441 423.322 424.961C423.322 424.48 422.936 424.094 422.456 424.094H273.739C273.259 424.094 272.873 424.48 272.873 424.961Z" fill="#3F3D56"/>
<path d="M172.868 125.749C167.245 126.288 163.373 133.887 164.219 142.726C164.508 146.262 165.64 149.676 167.52 152.685L168.604 162.689L168.438 162.738L165.714 210.172C165.08 221.201 169.446 232.038 177.857 239.2C182.861 243.46 188.198 245.617 191.631 240.234C197.326 231.302 189.949 194.483 185.104 173.55L183.226 151.181C184.502 147.87 184.966 144.301 184.58 140.774C183.735 131.938 178.491 125.211 172.868 125.749Z" fill="#FFB6B6"/>
</g>
<defs>
<clipPath id="clip0_10_274">
<rect width="467" height="456" fill="white"/>
</clipPath>
</defs>
</svg>
