<svg width="819" height="768" viewBox="0 0 819 768" fill="none" xmlns="http://www.w3.org/2000/svg">
<g clip-path="url(#clip0_11_582)">
<path d="M573.96 689.848C575.472 689.017 576.984 688.317 578.496 687.674C577.929 687.655 577.343 687.618 576.776 687.599C604.389 667.938 631.567 647.918 656.742 626.404C654.777 622.283 652.792 617.935 650.808 613.322L622.571 547.686L418.714 73.9927H412.874C412.874 74.4842 412.628 74.9946 412.155 75.4672C410.7 79.8342 406.448 90.7422 399.436 108.21C392.405 125.678 383.786 147.399 373.58 173.355C363.393 199.311 352.129 228.198 339.749 259.957C327.388 291.755 314.65 323.893 301.552 356.39C276.868 419.304 249.595 488.098 219.676 562.771C221.207 565.588 222.776 568.386 224.401 571.184C238.406 535.227 252.393 499.233 266.416 463.258C267.513 460.46 268.703 457.511 271.066 455.677C274.355 453.087 279.004 453.257 283.124 453.881C324.875 460.252 354.34 498.212 372.635 536.267C396.506 586.062 413.233 639.373 458.404 674.838C474.148 687.221 494.163 693.402 518.431 693.402H526.01C538.881 693.402 551.695 693.402 564.528 693.384C567.723 692.438 570.936 691.531 573.997 689.848H573.96ZM553.34 659.544C551.393 667.049 547.632 673.25 542.056 678.09C539.183 680.585 535.725 682.438 531.642 683.629C527.768 684.801 523.364 685.368 518.393 685.368C500.929 685.368 485.639 681.625 472.56 674.082C459.463 666.577 448.066 656.992 438.351 645.328C428.636 633.664 420.264 620.601 413.252 606.025C406.221 591.469 399.53 577.177 393.236 563.093C384.013 542.695 374.204 523.185 363.771 504.489C353.319 485.811 340.108 471.141 324.1 460.46C308.583 451.253 291.61 446.886 273.164 447.359C282.878 422.594 292.801 397.621 303.007 372.383C313.194 347.145 322.777 323.269 331.754 300.697C340.713 278.106 348.594 257.991 355.379 240.278C362.165 222.583 367.513 209.104 371.407 199.879C377.228 213.49 382.444 225.494 387.056 235.911C391.649 246.346 396.638 257.746 401.968 270.128C407.317 282.473 413.346 296.802 420.15 313.06C426.935 329.337 435.8 349.943 446.705 374.935C457.629 399.946 470.84 430.609 486.376 467.001C501.893 503.392 520.812 547.572 543.115 599.484C543.115 599.957 543.36 600.448 543.871 600.94C544.343 601.431 544.589 601.904 544.589 602.396C544.589 602.887 544.816 603.624 545.307 604.589C549.182 614.778 551.96 624.609 553.661 634.061C555.059 641.906 555.23 649.052 554.114 655.574C553.907 656.917 553.642 658.24 553.321 659.544H553.34Z" fill="#1F1F1F"/>
<path d="M210.737 697.391C187.697 696.2 165.546 693.97 144.416 689.338C108.09 681.285 74.6934 665.953 45.0769 636.027C58.4582 680.131 71.8017 724.236 85.0696 768H265.056V698.979C246.477 698.62 228.333 698.318 210.737 697.391Z" fill="#1F1F1F"/>
<path d="M292.177 666.69C265.472 638.106 242.848 607.216 224.383 574.87C221.396 582.584 218.372 590.278 215.367 597.991C208.96 614.438 203.082 633.872 205.161 650.659C228.314 667.673 253.3 683.761 279.59 699.282C274.714 699.168 269.875 699.074 265.037 698.998V768.019H322.172C332.699 725.616 320.055 696.56 292.159 666.709L292.177 666.69Z" fill="#1F1F1F"/>
<path d="M599.021 698.337C591.518 697.996 573.79 698.45 566.286 698.11C593.899 678.449 631.586 647.918 656.761 626.404C715.73 576.043 763.585 517.306 779.65 435.071C802.028 320.339 773.432 215.135 696.735 125.867C567.269 -24.7461 322.55 -43.0458 179.551 86.3941C99.5472 158.78 51.7298 248.048 48.1766 356.995C44.1131 480.99 101.456 565.74 188.756 634.458C192.574 627.671 196.221 620.412 199.68 612.623C206.465 595.722 213.137 579.105 219.658 562.79C148.328 431.876 144.303 278.786 214.914 160.519C264.3 77.7736 334.93 33.1776 434.552 42.3653C529.62 51.1181 596.3 100.667 629.658 188.101C678.648 316.539 674.773 436.942 622.571 547.724C605.107 584.795 582.257 620.771 554.133 655.612C549.786 661.019 545.307 666.388 540.677 671.757C537.237 675.746 534.232 679.716 531.642 683.667C529.469 686.918 527.598 690.189 525.972 693.421C514.424 716.485 515.237 739.719 519.527 767.603C546.573 767.603 573.336 767.698 599.891 767.735C600.855 741.382 597.868 724.727 599.002 698.374L599.021 698.337Z" fill="#1F1F1F"/>
<path d="M653.34 696.767C676.38 695.576 698.53 693.346 719.661 688.714C755.987 680.661 789.383 665.329 819 635.403C805.619 679.507 792.275 723.612 779.007 767.376H599.021C599.021 744.369 599.021 721.362 599.021 698.355C617.6 697.996 635.744 697.694 653.34 696.767Z" fill="#1F1F1F"/>
</g>
<defs>
<clipPath id="clip0_11_582">
<rect width="819" height="768" fill="white"/>
</clipPath>
</defs>
</svg>
